<svg width="764" height="609" viewBox="0 0 764 609" fill="none" xmlns="http://www.w3.org/2000/svg">
<rect x="2.5" y="111.653" width="759" height="381.177" rx="71.5" stroke="#9F9F9F" stroke-width="5"/>
<mask id="mask0_4_58" style="mask-type:alpha" maskUnits="userSpaceOnUse" x="42" y="167" width="673" height="273">
<rect x="74.5859" y="263.105" width="24.4619" height="76.4308" rx="12.2309" fill="#D9D9D9"/>
<rect x="42.21" y="284.943" width="24.4619" height="36.3956" rx="12.2309" fill="#D9D9D9"/>
<rect x="106.962" y="232.169" width="24.4619" height="138.91" rx="12.2309" fill="#D9D9D9"/>
<rect x="139.338" y="220.037" width="24.4619" height="164.993" rx="12.2309" fill="#D9D9D9"/>
<rect x="171.714" y="191.527" width="24.4619" height="220.8" rx="12.2309" fill="#D9D9D9"/>
<rect x="204.09" y="167.87" width="24.4619" height="271.754" rx="12.2309" fill="#D9D9D9"/>
<rect x="236.466" y="220.037" width="24.4619" height="172.273" rx="12.2309" fill="#D9D9D9"/>
<rect x="268.842" y="249.154" width="24.4619" height="121.925" rx="12.2309" fill="#D9D9D9"/>
<rect x="301.218" y="232.169" width="24.4619" height="152.862" rx="12.2309" fill="#D9D9D9"/>
<rect x="333.594" y="269.778" width="24.4619" height="65.5121" rx="12.2309" fill="#D9D9D9"/>
<rect x="365.97" y="286.763" width="24.4619" height="26.6901" rx="12.2309" fill="#D9D9D9"/>
<rect x="398.346" y="266.745" width="24.4619" height="70.9715" rx="12.2309" fill="#D9D9D9"/>
<rect x="430.722" y="266.745" width="24.4619" height="70.9715" rx="12.2309" fill="#D9D9D9"/>
<rect x="463.098" y="236.415" width="24.4619" height="131.631" rx="12.2309" fill="#D9D9D9"/>
<rect x="495.474" y="201.233" width="24.4619" height="203.816" rx="12.2309" fill="#D9D9D9"/>
<rect x="527.85" y="236.415" width="24.4619" height="131.631" rx="12.2309" fill="#D9D9D9"/>
<rect x="560.226" y="236.415" width="24.4619" height="131.631" rx="12.2309" fill="#D9D9D9"/>
<rect x="592.602" y="266.745" width="24.4619" height="70.9715" rx="12.2309" fill="#D9D9D9"/>
<rect x="624.979" y="266.745" width="24.4619" height="70.9715" rx="12.2309" fill="#D9D9D9"/>
<rect x="657.354" y="286.763" width="24.4619" height="36.3956" rx="12.2309" fill="#D9D9D9"/>
<rect x="689.73" y="286.763" width="24.4619" height="36.3956" rx="12.2309" fill="#D9D9D9"/>
</mask>
<g mask="url(#mask0_4_58)">
<rect x="74.5859" y="263.105" width="24.4619" height="76.4308" rx="12.2309" fill="#9F9F9F"/>
<rect x="42.21" y="284.943" width="24.4619" height="36.3956" rx="12.2309" fill="#9F9F9F"/>
<rect x="106.962" y="232.169" width="24.4619" height="138.91" rx="12.2309" fill="#9F9F9F"/>
<rect x="139.338" y="220.037" width="24.4619" height="164.993" rx="12.2309" fill="#9F9F9F"/>
<rect x="171.714" y="191.527" width="24.4619" height="220.8" rx="12.2309" fill="#9F9F9F"/>
<rect x="204.09" y="167.87" width="24.4619" height="271.754" rx="12.2309" fill="#9F9F9F"/>
<rect x="236.466" y="220.037" width="24.4619" height="172.273" rx="12.2309" fill="#9F9F9F"/>
<rect x="268.842" y="249.154" width="24.4619" height="121.925" rx="12.2309" fill="#9F9F9F"/>
<rect x="301.218" y="232.169" width="24.4619" height="152.862" rx="12.2309" fill="#9F9F9F"/>
<rect x="333.594" y="269.778" width="24.4619" height="65.5121" rx="12.2309" fill="#9F9F9F"/>
<rect x="365.97" y="286.763" width="24.4619" height="26.6901" rx="12.2309" fill="#9F9F9F"/>
<rect x="398.346" y="266.745" width="24.4619" height="70.9715" rx="12.2309" fill="#9F9F9F"/>
<rect x="430.722" y="266.745" width="24.4619" height="70.9715" rx="12.2309" fill="#9F9F9F"/>
<rect x="463.098" y="236.415" width="24.4619" height="131.631" rx="12.2309" fill="#9F9F9F"/>
<rect x="495.474" y="201.233" width="24.4619" height="203.816" rx="12.2309" fill="#9F9F9F"/>
<rect x="527.85" y="236.415" width="24.4619" height="131.631" rx="12.2309" fill="#9F9F9F"/>
<rect x="560.226" y="236.415" width="24.4619" height="131.631" rx="12.2309" fill="#9F9F9F"/>
<rect x="592.602" y="266.745" width="24.4619" height="70.9715" rx="12.2309" fill="#9F9F9F"/>
<rect x="624.979" y="266.745" width="24.4619" height="70.9715" rx="12.2309" fill="#9F9F9F"/>
<rect x="657.354" y="286.763" width="24.4619" height="36.3956" rx="12.2309" fill="#9F9F9F"/>
<rect x="689.73" y="286.763" width="24.4619" height="36.3956" rx="12.2309" fill="#9F9F9F"/>
<rect x="164" y="139" width="402" height="324" fill="url(#paint0_linear_4_58)"/>
</g>
<rect x="158.054" width="12.3738" height="569.563" rx="6.18688" fill="#9F9F9F"/>
<ellipse cx="163.003" cy="578.664" rx="32.9967" ry="30.3362" fill="#9F9F9F"/>
<rect x="564.536" y="4.51666" width="12.1875" height="565.339" rx="6.09375" fill="#9F9F9F"/>
<ellipse cx="569.411" cy="578.889" rx="32.5" ry="30.1112" fill="#9F9F9F"/>
<defs>
<linearGradient id="paint0_linear_4_58" x1="133.56" y1="231.088" x2="576.723" y2="346.751" gradientUnits="userSpaceOnUse">
<stop stop-color="#4626C6"/>
<stop offset="1" stop-color="#BA2BA3" stop-opacity="0.95"/>
</linearGradient>
</defs>
</svg>
